<?xml version="1.0" standalone="no"?>
<!DOCTYPE svg PUBLIC "-//W3C//DTD SVG 20010904//EN"
 "http://www.w3.org/TR/2001/REC-SVG-20010904/DTD/svg10.dtd">
<svg version="1.0" xmlns="http://www.w3.org/2000/svg"
 width="300.000000pt" height="300.000000pt" viewBox="0 0 300.000000 300.000000"
 preserveAspectRatio="xMidYMid meet">
<metadata>
Created by potrace 1.11, written by Peter Selinger 2001-2013
</metadata>
<g transform="translate(0.000000,300.000000) scale(0.100000,-0.100000)"
fill="#000000" stroke="none">
<path d="M1111 2901 c-16 -10 -12 -22 30 -89 50 -78 30 -151 -95 -330 -40 -59
-88 -135 -106 -169 -66 -131 -70 -263 -14 -392 40 -89 153 -232 189 -237 29
-4 22 26 -20 82 -53 70 -70 125 -62 202 8 69 28 113 120 257 152 239 176 356
101 512 -41 86 -122 178 -143 164z"/>
<path d="M1500 2664 c0 -8 10 -30 23 -47 72 -99 56 -168 -89 -377 -158 -228
-188 -386 -103 -552 l19 -38 -22 -1 c-13 0 -299 0 -635 0 -367 -1 -615 -5
-619 -10 -7 -12 -6 -251 2 -310 45 -348 192 -651 426 -875 46 -44 113 -100
148 -124 l65 -45 615 0 615 0 77 57 c141 105 248 220 343 368 95 149 174 356
201 525 2 17 7 46 10 65 7 44 13 320 7 336 -2 7 -22 10 -49 9 -44 -3 -44 -3
-22 14 27 21 155 109 292 203 54 37 110 76 122 87 33 29 32 75 -2 106 -33 31
-56 31 -103 3 -81 -50 -588 -371 -613 -389 -18 -12 -44 -19 -74 -19 -44 0 -46
1 -33 19 8 11 133 169 279 352 275 347 278 351 248 406 -13 27 -69 40 -102 25
-13 -6 -54 -50 -92 -99 -120 -155 -537 -688 -545 -697 -8 -9 -448 -10 -457 -1
-3 3 -6 30 -5 59 1 71 34 148 120 281 124 194 147 256 141 380 -3 69 -10 94
-36 147 -55 107 -152 198 -152 142z"/>
<path d="M724 221 c-2 -2 -4 -34 -4 -71 l0 -67 607 1 608 1 0 70 1 70 -604 0
c-332 0 -605 -2 -608 -4z"/>
</g>
</svg>
